<svg xmlns="http://www.w3.org/2000/svg" viewBox="1683 -1251 32 32"><defs><style>.a{fill:#fff;}</style></defs><path class="a" d="M7.955,2.145A15.483,15.483,0,0,1,16,0a15.952,15.952,0,0,1,8.045,2.145,16.445,16.445,0,0,1,5.81,5.81A15.483,15.483,0,0,1,32,16a15.715,15.715,0,0,1-2.145,8.045,16.445,16.445,0,0,1-5.81,5.81A15.483,15.483,0,0,1,16,32a15.952,15.952,0,0,1-8.045-2.145,16.445,16.445,0,0,1-5.81-5.81A15.715,15.715,0,0,1,0,16,15.952,15.952,0,0,1,2.145,7.955,16.445,16.445,0,0,1,7.955,2.145ZM23.866,8.134A10.8,10.8,0,0,0,16,4.916,10.942,10.942,0,0,0,8.134,8.134,10.8,10.8,0,0,0,4.916,16a10.942,10.942,0,0,0,3.218,7.866A10.8,10.8,0,0,0,16,27.084a10.942,10.942,0,0,0,7.866-3.218A10.8,10.8,0,0,0,27.084,16,10.8,10.8,0,0,0,23.866,8.134ZM16,16h5.363v2.682H13.318V7.955H16Z" transform="translate(1683 -1251)"/></svg>