<?xml version="1.0" encoding="utf-8"?>
<!-- Generator: Adobe Illustrator 22.0.1, SVG Export Plug-In . SVG Version: 6.00 Build 0)  -->
<svg version="1.1" id="Layer_1" xmlns="http://www.w3.org/2000/svg" xmlns:xlink="http://www.w3.org/1999/xlink" x="0px" y="0px"
	 viewBox="0 0 32 32" style="enable-background:new 0 0 32 32;" xml:space="preserve">
<style type="text/css">
	.st0{fill:#444444;}
</style>
<path class="st0" d="M23.8,20l8,8c0.1,0.2,0.2,0.3,0.2,0.4c0,0.2-0.1,0.3-0.2,0.4l-2.9,2.9c-0.2,0.1-0.3,0.2-0.4,0.2
	c-0.2,0-0.3-0.1-0.4-0.2l-8-8c-2.1,1.4-4.5,2.1-7,2c-3.5,0.1-6.8-1.3-9.2-3.8c-2.5-2.4-3.9-5.7-3.8-9.1c-0.1-3.5,1.3-6.8,3.8-9.2
	C6.2,1.3,9.5-0.1,12.9,0c3.5-0.1,6.8,1.3,9.2,3.8c2.5,2.4,3.9,5.7,3.8,9.2C25.9,15.5,25.2,17.9,23.8,20z M6.7,19.2
	c1.6,1.7,3.9,2.6,6.2,2.6c4.9,0,8.8-4,8.8-8.8c0-4.9-4-8.8-8.8-8.8c0,0,0,0,0,0c-4.9,0-8.8,4-8.8,8.8C4.1,15.3,5,17.5,6.7,19.2
	L6.7,19.2z M15.4,10.1h2.7v5.3h-2.7v2.7h-5.3v-2.7H7.4v-5.3h2.7V7.4h5.3L15.4,10.1z"/>
</svg>
