<svg xmlns="http://www.w3.org/2000/svg" viewBox="162 -1182 32 32"><defs><style>.a{fill:#72c7d5;}</style></defs><path class="a" d="M23.8,19.967l8.022,8.022a.646.646,0,0,1,0,.891L28.88,31.822a.491.491,0,0,1-.446.178.681.681,0,0,1-.446-.178L19.967,23.8a12.92,12.92,0,0,1-6.953,2.05,12.458,12.458,0,0,1-9.181-3.833A12.125,12.125,0,0,1,0,12.925,12.125,12.125,0,0,1,3.833,3.833,12.125,12.125,0,0,1,12.925,0a12.458,12.458,0,0,1,9.181,3.833,12.661,12.661,0,0,1,3.833,9.181A13.254,13.254,0,0,1,23.8,19.967ZM6.685,6.685A8.619,8.619,0,0,0,4.1,12.925a8.826,8.826,0,0,0,8.825,8.825,8.826,8.826,0,0,0,8.825-8.825,8.769,8.769,0,0,0-2.585-6.24A8.619,8.619,0,0,0,12.925,4.1,8.619,8.619,0,0,0,6.685,6.685ZM7.4,10.072v5.348h10.7V10.072H7.4Z" transform="translate(162 -1182)"/></svg>