<svg xmlns="http://www.w3.org/2000/svg" viewBox="32 -1260 48 48"><defs><style>.a{fill:#fff;}</style></defs><g transform="translate(31.9 -1260.006)"><path class="a" d="M40.859,5.284l6.018,1.68c.433.144.433.432.048.672L29.3,18.677a2.167,2.167,0,0,1-1.541.24L2.343,11.572c-.433-.144-.433-.432-.048-.72L20.927.291a2.167,2.167,0,0,1,1.541-.24l4.333,1.3.385.1c.578.144.674.384.674.48a.5.5,0,0,1-.241.432L16.5,9.028c-.433.24-.385.576,0,.72l9.677,2.832a2.167,2.167,0,0,0,1.541-.24L38.6,5.812s.578-.288,1.011-.48a1.881,1.881,0,0,1,1.252-.048" transform="translate(-0.991 0)"/><path class="a" d="M85.141,34.1a1.456,1.456,0,0,1,.77-1.3l5.151-3.264a.687.687,0,0,1,.915.192.712.712,0,0,1,.1.432v14.3c-.048.576,0,.912-.915,1.536l-5.344,3.84c-.433.288-.674.048-.674-.384Zm-.241-3.84c0,.432.337.624.77.336L91.3,27.046a1.414,1.414,0,0,0,.722-1.2l.048-6.96c0-.432-.337-.72-.77-.48L85.67,22.054a1.755,1.755,0,0,0-.77,1.3Z" transform="translate(-43.974 -9.522)"/><path class="a" d="M25.617,34.448.87,27.248A.435.435,0,0,0,.63,27.2a.577.577,0,0,0-.53.576V53.89A1.147,1.147,0,0,0,.87,54.9l24.746,7.2a.435.435,0,0,0,.241.048.577.577,0,0,0,.53-.576V35.409A1.141,1.141,0,0,0,25.617,34.448ZM18.3,51.682a.359.359,0,0,1-.048.24.528.528,0,0,1-.722.288L8,49.281a1.147,1.147,0,0,1-.77-1.008V37.089a.359.359,0,0,1,.048-.24A.528.528,0,0,1,8,36.561l9.533,2.928A1.147,1.147,0,0,1,18.3,40.5Z" transform="translate(0 -14.14)"/></g></svg>