<svg xmlns="http://www.w3.org/2000/svg" viewBox="32 -1182 42.248 32"><defs><style>.a{fill:#ffffff;}</style></defs><g transform="translate(46 -1199)"><g transform="translate(-14 17)"><g transform="translate(21.559 11.505)"><path class="a" d="M37.478,24.758,42.6,29.882a.483.483,0,0,1,0,.58L40.765,32.3a.483.483,0,0,1-.58,0l-5.124-5.124a8.224,8.224,0,0,1-10.344-1.063,7.951,7.951,0,0,1-2.417-5.9A8.253,8.253,0,0,1,30.614,11.9a8.253,8.253,0,0,1,8.314,8.314A9.032,9.032,0,0,1,37.478,24.758ZM27.037,23.5a4.931,4.931,0,0,0,8.411-3.48,4.922,4.922,0,0,0-8.411-3.48,4.69,4.69,0,0,0-1.45,3.384A5.276,5.276,0,0,0,27.037,23.5Z" transform="translate(-22.3 -11.9)"/></g><path class="a" d="M21.076,29.68H0V0H42.248V14.308H38.381V3.867H3.867V25.813H21.076Z"/></g></g></svg>