<svg xmlns="http://www.w3.org/2000/svg" viewBox="106 -1182 32 32"><defs><style>.a{fill:#ffffff;}</style></defs><path class="a" d="M23.8,19.967l8.022,8.022c.089.178.178.267.178.446a.681.681,0,0,1-.178.446L28.88,31.822c-.178.089-.267.178-.446.178a.681.681,0,0,1-.446-.178L19.967,23.8a12.2,12.2,0,0,1-6.953,2.05,12.458,12.458,0,0,1-9.181-3.833A12.125,12.125,0,0,1,0,12.925,12.458,12.458,0,0,1,3.833,3.744,12.378,12.378,0,0,1,12.925,0a12.458,12.458,0,0,1,9.181,3.833,12.661,12.661,0,0,1,3.833,9.181A13.015,13.015,0,0,1,23.8,19.967Zm-17.114-.8a8.619,8.619,0,0,0,6.24,2.585,8.826,8.826,0,0,0,8.825-8.825A8.826,8.826,0,0,0,12.925,4.1,8.826,8.826,0,0,0,4.1,12.925,8.619,8.619,0,0,0,6.685,19.164Zm8.735-9.092h2.674v5.348H15.421v2.674H10.072V15.421H7.4V10.072h2.674V7.4h5.348Z" transform="translate(106 -1182)"/></svg>