<?xml version="1.0" encoding="utf-8"?>
<!-- Generator: Adobe Illustrator 22.0.1, SVG Export Plug-In . SVG Version: 6.00 Build 0)  -->
<svg version="1.1" id="Layer_1" xmlns="http://www.w3.org/2000/svg" xmlns:xlink="http://www.w3.org/1999/xlink" x="0px" y="0px"
	 viewBox="0 0 32 32" style="enable-background:new 0 0 32 32;" xml:space="preserve">
<style type="text/css">
	.st0{fill:#b3b3b3;}
</style>
<path class="st0" d="M23.8,20l8,8c0.2,0.2,0.2,0.6,0,0.9l-2.9,2.9C28.8,32,28.6,32,28.4,32c-0.2,0-0.3-0.1-0.4-0.2l-8-8
	c-2.1,1.3-4.5,2-7,2c-3.5,0.1-6.8-1.3-9.2-3.8c-2.5-2.4-3.9-5.7-3.8-9.1c-0.1-3.4,1.3-6.7,3.8-9.1C6.2,1.3,9.5-0.1,12.9,0
	c3.5-0.1,6.8,1.3,9.2,3.8c2.5,2.4,3.9,5.7,3.8,9.2C25.9,15.5,25.1,17.9,23.8,20z M6.7,6.7C5,8.3,4.1,10.6,4.1,12.9
	c0,4.9,4,8.8,8.8,8.8c4.9,0,8.8-4,8.8-8.8c0-2.3-0.9-4.6-2.6-6.2c-1.6-1.7-3.9-2.6-6.2-2.6C10.6,4.1,8.3,5,6.7,6.7z M7.4,10.1v5.3
	h10.7v-5.3H7.4z"/>
</svg>
